# xmcd
#
# Track frame offsets: 
#        150
#        19411
#        29772
#        46903
#        74681
#        93655
#        112459
#        131820
#        149656
#        163345
#        177695
#        193401
#
# Disc length: 2897 seconds
#
# Revision: 0
# Processed by: cddbd v1.5.2PL0 Copyright (c) Steve Scherf et al.
# Submitted via: ExactAudioCopyFreeDBPlugin 1.0
#
DISCID=d40b4f0c
DTITLE=San Pedro Slim - One Room Utilities Paid No Pets
DYEAR=2013
DGENRE=Blues
TTITLE0=I Aint Never Cheated Nobody
TTITLE1=Everything's Past Due
TTITLE2=The Apartment Song
TTITLE3=Talkin' About My Neighbors
TTITLE4=You'll Have To Want
TTITLE5=Someday I Won't Care
TTITLE6=My Baby's Coming Home
TTITLE7=Why Is Your Woman Always Drunk
TTITLE8=A Tune For Earl (Across The Way)
TTITLE9=85 Chrysler LeBaron
TTITLE10=Pay Or Quit (Letter From The Landlord)
TTITLE11=Cryin' Hard Luck
EXTD=
EXTT0=
EXTT1=
EXTT2=
EXTT3=
EXTT4=
EXTT5=
EXTT6=
EXTT7=
EXTT8=
EXTT9=
EXTT10=
EXTT11=
PLAYORDER=
